<svg xmlns="http://www.w3.org/2000/svg" xmlns:v="https://svgstorm.com"
viewBox = "0 0 400 400"
width="400"
height="400">
<g fill="None" fill-opacity="0.0" stroke="#000000" stroke-opacity="0.00" stroke-width="0.3"><path d="
M 0.00 400.00 
L 400.00 400.00
L 400.00 0.00
L 0.00 0.00
L 0.00 400.00
M 302.00 26.00 
C 322.45 24.02 345.72 36.76 358.00 53.00
C 358.70 53.93 359.31 55.13 360.00 56.00
C 369.77 68.22 373.54 83.47 375.00 99.00
C 375.95 109.13 375.00 119.82 375.00 130.00
C 375.00 158.34 376.01 186.65 375.00 215.00 C 373.99 243.35 377.65 272.75 375.00 301.00
C 371.62 337.05 343.50 377.89 302.00 374.00
C 269.59 377.14 235.35 375.24 202.00 375.00 C 168.65 374.76 133.37 377.27 100.00 375.00
C 79.84 373.63 63.49 367.66 48.25 353.75 C 33.00 339.85 27.92 321.79 26.00 302.00
C 23.34 274.47 25.46 245.38 25.00 217.00 C 24.54 188.62 25.00 159.45 25.00 131.00
C 25.00 120.49 24.02 109.46 25.00 99.00
C 26.86 79.18 32.65 62.60 46.75 47.75 C 60.85 32.90 78.24 27.91 98.00 26.00
C 130.80 22.83 166.38 25.00 200.00 25.00 C 233.62 25.00 269.28 22.83 302.00 26.00 Z"/>
</g>
<g fill="None" fill-opacity="0.0" stroke="#F4F4F4" stroke-opacity="0.47" stroke-width="0.3"><path d="
M 98.00 26.00 
C 130.80 29.17 166.38 27.00 200.00 27.00 C 233.62 27.00 269.28 29.17 302.00 26.00
C 269.28 22.83 233.62 25.00 200.00 25.00 C 166.38 25.00 130.80 22.83 98.00 26.00 Z"/>
</g>
<g fill="None" fill-opacity="0.0" stroke="#FBFBFB" stroke-opacity="0.99" stroke-width="0.3"><path d="
M 25.00 99.00 
C 25.11 104.21 26.00 116.17 26.00 124.00
C 26.42 128.39 27.00 133.93 27.00 139.00
C 27.00 192.63 31.09 249.38 26.00 302.00
C 27.92 321.79 33.00 339.85 48.25 353.75 C 63.49 367.66 79.84 373.63 100.00 375.00
C 108.43 373.78 121.18 371.65 132.00 373.00 C 142.82 374.35 154.72 374.09 166.00 374.00 C 177.28 373.91 188.66 374.20 200.00 374.00 C 211.34 373.80 223.72 374.43 235.00 374.00 C 246.28 373.57 256.57 372.92 268.00 373.00 C 279.43 373.08 290.98 372.97 302.00 374.00
C 343.50 377.89 371.62 337.05 375.00 301.00
C 374.54 297.81 371.93 287.68 373.00 280.00 C 374.07 272.32 372.52 263.04 373.00 255.00 C 373.48 246.96 372.78 238.20 373.00 230.00 C 373.22 221.80 372.90 213.27 373.00 205.00 C 373.10 196.73 372.96 188.30 373.00 180.00 C 373.04 171.70 373.00 163.31 373.00 155.00
C 373.00 146.32 373.23 136.91 374.00 129.00
C 374.00 119.16 374.97 108.02 375.00 99.00
C 373.54 83.47 369.77 68.22 360.00 56.00
C 359.70 55.75 354.04 54.14 355.00 51.00
C 356.25 51.30 356.71 52.83 358.00 53.00
C 345.72 36.76 322.45 24.02 302.00 26.00
C 269.28 29.17 233.62 27.00 200.00 27.00 C 166.38 27.00 130.80 29.17 98.00 26.00
C 78.24 27.91 60.85 32.90 46.75 47.75 C 32.65 62.60 26.86 79.18 25.00 99.00
M 217.00 41.00 
C 300.79 52.97 362.96 129.37 355.00 215.00 C 347.04 300.64 269.24 364.73 183.78 357.22 C 98.32 349.71 37.28 266.52 44.99 183.99 C 52.70 101.46 131.28 28.75 217.00 41.00 Z"/>
</g>
<g fill="None" fill-opacity="0.0" stroke="#979797" stroke-opacity="1.00" stroke-width="0.3"><path d="
M 217.00 41.00 
C 131.28 28.75 52.70 101.46 44.99 183.99 C 37.28 266.52 98.32 349.71 183.78 357.22 C 269.24 364.73 347.04 300.64 355.00 215.00 C 362.96 129.37 300.79 52.97 217.00 41.00
M 259.00 88.00 
C 261.97 86.70 263.22 82.23 267.00 83.00
C 261.49 89.96 262.73 95.36 268.00 102.00
C 263.25 103.26 262.88 97.38 260.00 95.00
C 255.51 96.42 256.78 103.64 251.00 102.00
C 256.31 95.73 257.88 89.55 252.00 83.00
C 255.90 81.82 257.32 85.48 259.00 88.00
M 210.00 94.00 
C 236.19 97.74 252.14 137.18 234.23 156.23 C 216.32 175.28 199.15 188.33 179.25 204.25 C 159.35 220.17 140.69 243.23 113.00 241.00 C 85.31 238.77 70.59 197.40 88.25 178.25 C 105.92 159.11 125.11 147.50 144.23 131.23 C 163.35 114.96 182.35 90.05 210.00 94.00
M 333.00 165.00 
C 328.14 164.02 327.08 157.29 320.00 160.00
C 319.36 162.16 319.41 165.88 316.00 165.00
C 318.43 161.87 318.89 146.53 324.08 146.08 C 329.28 145.64 331.32 161.56 333.00 165.00
M 283.00 158.00 
C 309.60 162.77 323.89 203.14 304.70 221.70 C 285.50 240.25 269.81 251.92 250.30 269.30 C 230.79 286.69 211.60 307.82 183.78 304.22 C 155.96 300.63 142.82 260.03 161.30 241.30 C 179.79 222.58 196.74 210.03 216.08 194.08 C 235.42 178.13 255.46 153.07 283.00 158.00
M 69.00 239.00 
C 72.41 237.44 72.25 231.14 77.00 232.00
C 75.32 238.38 68.69 243.18 71.00 251.00
C 65.60 251.61 69.32 243.79 67.07 240.93 C 64.82 238.07 62.78 235.47 62.00 232.00
C 65.60 231.71 67.35 236.32 69.00 239.00
M 134.00 313.00 
C 134.00 307.00 134.00 301.00 134.00 295.00
C 136.01 296.23 147.80 292.45 147.75 297.25 C 147.70 302.05 147.70 304.92 148.00 310.00 C 148.30 315.09 136.42 312.31 134.00 313.00 Z"/>
</g>
<g fill="None" fill-opacity="0.0" stroke="#F0F0F0" stroke-opacity="0.51" stroke-width="0.3"><path d="
M 360.00 56.00 
C 359.31 55.13 358.70 53.93 358.00 53.00
C 356.71 52.83 356.25 51.30 355.00 51.00
C 354.04 54.14 359.70 55.75 360.00 56.00 Z"/>
</g>
<g fill="None" fill-opacity="0.0" stroke="#DFDFDF" stroke-opacity="1.00" stroke-width="0.3"><path d="
M 259.00 88.00 
C 257.32 85.48 255.90 81.82 252.00 83.00
C 257.88 89.55 256.31 95.73 251.00 102.00
C 256.78 103.64 255.51 96.42 260.00 95.00
C 262.88 97.38 263.25 103.26 268.00 102.00
C 262.73 95.36 261.49 89.96 267.00 83.00
C 263.22 82.23 261.97 86.70 259.00 88.00 Z"/>
</g>
<g fill="None" fill-opacity="0.0" stroke="#DFE4E4" stroke-opacity="1.00" stroke-width="0.3"><path d="
M 210.00 94.00 
C 182.35 90.05 163.35 114.96 144.23 131.23 C 125.11 147.50 105.92 159.11 88.25 178.25 C 70.59 197.40 85.31 238.77 113.00 241.00 C 140.69 243.23 159.35 220.17 179.25 204.25 C 199.15 188.33 216.32 175.28 234.23 156.23 C 252.14 137.18 236.19 97.74 210.00 94.00
M 208.00 102.00 
C 230.63 105.67 242.07 136.20 226.25 153.25 C 210.42 170.30 182.76 168.48 172.08 145.92 C 161.39 123.36 182.57 97.87 208.00 102.00
M 129.00 169.00 
C 151.42 172.20 161.85 204.18 146.25 220.25 C 130.64 236.31 100.60 235.80 91.23 211.77 C 81.86 187.74 103.68 165.38 129.00 169.00 Z"/>
</g>
<g fill="None" fill-opacity="0.0" stroke="#FCFCFC" stroke-opacity="0.11" stroke-width="0.3"><path d="
M 25.00 131.00 
C 25.00 130.96 26.00 131.00 26.00 131.00
C 26.00 128.67 26.00 126.33 26.00 124.00
C 26.00 116.17 25.11 104.21 25.00 99.00
C 24.02 109.46 25.00 120.49 25.00 131.00 Z"/>
</g>
<g fill="None" fill-opacity="0.0" stroke="#FFFFFF" stroke-opacity="0.08" stroke-width="0.3"><path d="
M 374.00 129.00 
C 374.00 129.50 374.00 130.00 374.00 130.00
C 374.25 130.25 375.00 130.00 375.00 130.00
C 375.00 119.82 375.95 109.13 375.00 99.00
C 374.97 108.02 374.00 119.16 374.00 129.00 Z"/>
</g>
<g fill="None" fill-opacity="0.0" stroke="#7171FA" stroke-opacity="1.00" stroke-width="0.3"><path d="
M 208.00 102.00 
C 182.57 97.87 161.39 123.36 172.08 145.92 C 182.76 168.48 210.42 170.30 226.25 153.25 C 242.07 136.20 230.63 105.67 208.00 102.00 Z"/>
</g>
<g fill="None" fill-opacity="0.0" stroke="#F4F4F4" stroke-opacity="0.78" stroke-width="0.3"><path d="
M 26.00 131.00 
C 26.00 133.77 26.80 136.96 27.00 139.00
C 27.00 133.93 26.42 128.39 26.00 124.00
C 26.00 126.33 26.00 128.67 26.00 131.00 Z"/>
</g>
<g fill="None" fill-opacity="0.0" stroke="#F4F4F4" stroke-opacity="0.77" stroke-width="0.3"><path d="
M 373.00 155.00 
C 373.74 147.34 374.00 138.35 374.00 130.00
C 374.00 130.00 374.00 129.50 374.00 129.00
C 373.23 136.91 373.00 146.32 373.00 155.00 Z"/>
</g>
<g fill="None" fill-opacity="0.0" stroke="#F3F3F3" stroke-opacity="0.48" stroke-width="0.3"><path d="
M 373.00 155.00 
C 373.00 163.31 373.04 171.70 373.00 180.00 C 372.96 188.30 373.10 196.73 373.00 205.00 C 372.90 213.27 373.22 221.80 373.00 230.00 C 372.78 238.20 373.48 246.96 373.00 255.00 C 372.52 263.04 374.07 272.32 373.00 280.00 C 371.93 287.68 374.54 297.81 375.00 301.00
C 377.65 272.75 373.99 243.35 375.00 215.00 C 376.01 186.65 375.00 158.34 375.00 130.00
C 375.00 130.00 374.25 130.25 374.00 130.00
C 374.00 138.35 373.74 147.34 373.00 155.00 Z"/>
</g>
<g fill="None" fill-opacity="0.0" stroke="#F4F3F3" stroke-opacity="0.49" stroke-width="0.3"><path d="
M 26.00 302.00 
C 31.09 249.38 27.00 192.63 27.00 139.00
C 26.80 136.96 26.00 133.77 26.00 131.00
C 26.00 131.00 25.00 130.96 25.00 131.00
C 25.00 159.45 24.54 188.62 25.00 217.00 C 25.46 245.38 23.34 274.47 26.00 302.00 Z"/>
</g>
<g fill="None" fill-opacity="0.0" stroke="#E4E4E4" stroke-opacity="1.00" stroke-width="0.3"><path d="
M 333.00 165.00 
C 331.32 161.56 329.28 145.64 324.08 146.08 C 318.89 146.53 318.43 161.87 316.00 165.00
C 319.41 165.88 319.36 162.16 320.00 160.00
C 327.08 157.29 328.14 164.02 333.00 165.00
M 325.00 150.00 
C 325.26 152.44 326.76 154.52 327.00 157.00
C 321.09 159.31 320.80 151.84 325.00 150.00 Z"/>
</g>
<g fill="None" fill-opacity="0.0" stroke="#A5A5A5" stroke-opacity="1.00" stroke-width="0.3"><path d="
M 325.00 150.00 
C 320.80 151.84 321.09 159.31 327.00 157.00
C 326.76 154.52 325.26 152.44 325.00 150.00 Z"/>
</g>
<g fill="None" fill-opacity="0.0" stroke="#E0E4E3" stroke-opacity="1.00" stroke-width="0.3"><path d="
M 283.00 158.00 
C 255.46 153.07 235.42 178.13 216.08 194.08 C 196.74 210.03 179.79 222.58 161.30 241.30 C 142.82 260.03 155.96 300.63 183.78 304.22 C 211.60 307.82 230.79 286.69 250.30 269.30 C 269.81 251.92 285.50 240.25 304.70 221.70 C 323.89 203.14 309.60 162.77 283.00 158.00
M 281.00 166.00 
C 303.37 169.63 314.37 201.45 298.75 217.75 C 283.13 234.05 252.86 232.24 244.03 208.97 C 235.20 185.71 255.22 161.81 281.00 166.00
M 198.00 232.00 
C 221.28 235.33 234.66 263.73 219.75 282.75 C 204.84 301.78 175.61 298.98 164.25 277.75 C 152.88 256.53 173.62 228.52 198.00 232.00 Z"/>
</g>
<g fill="None" fill-opacity="0.0" stroke="#CC6065" stroke-opacity="1.00" stroke-width="0.3"><path d="
M 281.00 166.00 
C 255.22 161.81 235.20 185.71 244.03 208.97 C 252.86 232.24 283.13 234.05 298.75 217.75 C 314.37 201.45 303.37 169.63 281.00 166.00 Z"/>
</g>
<g fill="None" fill-opacity="0.0" stroke="#60B46B" stroke-opacity="1.00" stroke-width="0.3"><path d="
M 129.00 169.00 
C 103.68 165.38 81.86 187.74 91.23 211.77 C 100.60 235.80 130.64 236.31 146.25 220.25 C 161.85 204.18 151.42 172.20 129.00 169.00 Z"/>
</g>
<g fill="None" fill-opacity="0.0" stroke="#E4E4E4" stroke-opacity="1.00" stroke-width="0.3"><path d="
M 69.00 239.00 
C 67.35 236.32 65.60 231.71 62.00 232.00
C 62.78 235.47 64.82 238.07 67.07 240.93 C 69.32 243.79 65.60 251.61 71.00 251.00
C 68.69 243.18 75.32 238.38 77.00 232.00
C 72.25 231.14 72.41 237.44 69.00 239.00 Z"/>
</g>
<g fill="None" fill-opacity="0.0" stroke="#FCE65D" stroke-opacity="1.00" stroke-width="0.3"><path d="
M 198.00 232.00 
C 173.62 228.52 152.88 256.53 164.25 277.75 C 175.61 298.98 204.84 301.78 219.75 282.75 C 234.66 263.73 221.28 235.33 198.00 232.00 Z"/>
</g>
<g fill="None" fill-opacity="0.0" stroke="#E3E3E3" stroke-opacity="1.00" stroke-width="0.3"><path d="
M 134.00 313.00 
C 136.42 312.31 148.30 315.09 148.00 310.00 C 147.70 304.92 147.70 302.05 147.75 297.25 C 147.80 292.45 136.01 296.23 134.00 295.00
C 134.00 301.00 134.00 307.00 134.00 313.00
M 137.00 302.00 
C 135.10 298.18 141.76 295.82 144.22 298.78 C 146.68 301.74 139.27 302.92 137.00 302.00
M 137.00 311.00 
C 134.68 306.59 140.46 301.95 144.22 305.78 C 147.99 309.61 140.24 312.73 137.00 311.00 Z"/>
</g>
<g fill="None" fill-opacity="0.0" stroke="#9D9D9D" stroke-opacity="1.00" stroke-width="0.3"><path d="
M 137.00 302.00 
C 139.27 302.92 146.68 301.74 144.22 298.78 C 141.76 295.82 135.10 298.18 137.00 302.00 Z"/>
</g>
<g fill="None" fill-opacity="0.0" stroke="#A1A1A1" stroke-opacity="1.00" stroke-width="0.3"><path d="
M 137.00 311.00 
C 140.24 312.73 147.99 309.61 144.22 305.78 C 140.46 301.95 134.68 306.59 137.00 311.00 Z"/>
</g>
<g fill="None" fill-opacity="0.0" stroke="#F1F1F1" stroke-opacity="0.39" stroke-width="0.3"><path d="
M 100.00 375.00 
C 133.37 377.27 168.65 374.76 202.00 375.00 C 235.35 375.24 269.59 377.14 302.00 374.00
C 290.98 372.97 279.43 373.08 268.00 373.00 C 256.57 372.92 246.28 373.57 235.00 374.00 C 223.72 374.43 211.34 373.80 200.00 374.00 C 188.66 374.20 177.28 373.91 166.00 374.00 C 154.72 374.09 142.82 374.35 132.00 373.00 C 121.18 371.65 108.43 373.78 100.00 375.00 Z"/>
</g>
<g fill="#000000" fill-opacity="0.00" stroke="None">
<path d="
M 0.00 400.00 
L 400.00 400.00
L 400.00 0.00
L 0.00 0.00
L 0.00 400.00
M 302.00 26.00 
C 322.45 24.02 345.72 36.76 358.00 53.00
C 358.70 53.93 359.31 55.13 360.00 56.00
C 369.77 68.22 373.54 83.47 375.00 99.00
C 375.95 109.13 375.00 119.82 375.00 130.00
C 375.00 158.34 376.01 186.65 375.00 215.00 C 373.99 243.35 377.65 272.75 375.00 301.00
C 371.62 337.05 343.50 377.89 302.00 374.00
C 269.59 377.14 235.35 375.24 202.00 375.00 C 168.65 374.76 133.37 377.27 100.00 375.00
C 79.84 373.63 63.49 367.66 48.25 353.75 C 33.00 339.85 27.92 321.79 26.00 302.00
C 23.34 274.47 25.46 245.38 25.00 217.00 C 24.54 188.62 25.00 159.45 25.00 131.00
C 25.00 120.49 24.02 109.46 25.00 99.00
C 26.86 79.18 32.65 62.60 46.75 47.75 C 60.85 32.90 78.24 27.91 98.00 26.00
C 130.80 22.83 166.38 25.00 200.00 25.00 C 233.62 25.00 269.28 22.83 302.00 26.00 Z"/>
</g>
<g fill="#F4F4F4" fill-opacity="0.47" stroke="None">
<path d="
M 98.00 26.00 
C 130.80 29.17 166.38 27.00 200.00 27.00 C 233.62 27.00 269.28 29.17 302.00 26.00
C 269.28 22.83 233.62 25.00 200.00 25.00 C 166.38 25.00 130.80 22.83 98.00 26.00 Z"/>
</g>
<g fill="#FBFBFB" fill-opacity="0.99" stroke="None">
<path d="
M 25.00 99.00 
C 25.11 104.21 26.00 116.17 26.00 124.00
C 26.42 128.39 27.00 133.93 27.00 139.00
C 27.00 192.63 31.09 249.38 26.00 302.00
C 27.92 321.79 33.00 339.85 48.25 353.75 C 63.49 367.66 79.84 373.63 100.00 375.00
C 108.43 373.78 121.18 371.65 132.00 373.00 C 142.82 374.35 154.72 374.09 166.00 374.00 C 177.28 373.91 188.66 374.20 200.00 374.00 C 211.34 373.80 223.72 374.43 235.00 374.00 C 246.28 373.57 256.57 372.92 268.00 373.00 C 279.43 373.08 290.98 372.97 302.00 374.00
C 343.50 377.89 371.62 337.05 375.00 301.00
C 374.54 297.81 371.93 287.68 373.00 280.00 C 374.07 272.32 372.52 263.04 373.00 255.00 C 373.48 246.96 372.78 238.20 373.00 230.00 C 373.22 221.80 372.90 213.27 373.00 205.00 C 373.10 196.73 372.96 188.30 373.00 180.00 C 373.04 171.70 373.00 163.31 373.00 155.00
C 373.00 146.32 373.23 136.91 374.00 129.00
C 374.00 119.16 374.97 108.02 375.00 99.00
C 373.54 83.47 369.77 68.22 360.00 56.00
C 359.70 55.75 354.04 54.14 355.00 51.00
C 356.25 51.30 356.71 52.83 358.00 53.00
C 345.72 36.76 322.45 24.02 302.00 26.00
C 269.28 29.17 233.62 27.00 200.00 27.00 C 166.38 27.00 130.80 29.17 98.00 26.00
C 78.24 27.91 60.85 32.90 46.75 47.75 C 32.65 62.60 26.86 79.18 25.00 99.00
M 217.00 41.00 
C 300.79 52.97 362.96 129.37 355.00 215.00 C 347.04 300.64 269.24 364.73 183.78 357.22 C 98.32 349.71 37.28 266.52 44.99 183.99 C 52.70 101.46 131.28 28.75 217.00 41.00 Z"/>
</g>
<g fill="#979797" fill-opacity="1.00" stroke="None">
<path d="
M 217.00 41.00 
C 131.28 28.75 52.70 101.46 44.99 183.99 C 37.28 266.52 98.32 349.71 183.78 357.22 C 269.24 364.73 347.04 300.64 355.00 215.00 C 362.96 129.37 300.79 52.97 217.00 41.00
M 259.00 88.00 
C 261.97 86.70 263.22 82.23 267.00 83.00
C 261.49 89.96 262.73 95.36 268.00 102.00
C 263.25 103.26 262.88 97.38 260.00 95.00
C 255.51 96.42 256.78 103.64 251.00 102.00
C 256.31 95.73 257.88 89.55 252.00 83.00
C 255.90 81.82 257.32 85.48 259.00 88.00
M 210.00 94.00 
C 236.19 97.74 252.14 137.18 234.23 156.23 C 216.32 175.28 199.15 188.33 179.25 204.25 C 159.35 220.17 140.69 243.23 113.00 241.00 C 85.31 238.77 70.59 197.40 88.25 178.25 C 105.92 159.11 125.11 147.50 144.23 131.23 C 163.35 114.96 182.35 90.05 210.00 94.00
M 333.00 165.00 
C 328.14 164.02 327.08 157.29 320.00 160.00
C 319.36 162.16 319.41 165.88 316.00 165.00
C 318.43 161.87 318.89 146.53 324.08 146.08 C 329.28 145.64 331.32 161.56 333.00 165.00
M 283.00 158.00 
C 309.60 162.77 323.89 203.14 304.70 221.70 C 285.50 240.25 269.81 251.92 250.30 269.30 C 230.79 286.69 211.60 307.82 183.78 304.22 C 155.96 300.63 142.82 260.03 161.30 241.30 C 179.79 222.58 196.74 210.03 216.08 194.08 C 235.42 178.13 255.46 153.07 283.00 158.00
M 69.00 239.00 
C 72.41 237.44 72.25 231.14 77.00 232.00
C 75.32 238.38 68.69 243.18 71.00 251.00
C 65.60 251.61 69.32 243.79 67.07 240.93 C 64.82 238.07 62.78 235.47 62.00 232.00
C 65.60 231.71 67.35 236.32 69.00 239.00
M 134.00 313.00 
C 134.00 307.00 134.00 301.00 134.00 295.00
C 136.01 296.23 147.80 292.45 147.75 297.25 C 147.70 302.05 147.70 304.92 148.00 310.00 C 148.30 315.09 136.42 312.31 134.00 313.00 Z"/>
</g>
<g fill="#F0F0F0" fill-opacity="0.51" stroke="None">
<path d="
M 360.00 56.00 
C 359.31 55.13 358.70 53.93 358.00 53.00
C 356.71 52.83 356.25 51.30 355.00 51.00
C 354.04 54.14 359.70 55.75 360.00 56.00 Z"/>
</g>
<g fill="#DFDFDF" fill-opacity="1.00" stroke="None">
<path d="
M 259.00 88.00 
C 257.32 85.48 255.90 81.82 252.00 83.00
C 257.88 89.55 256.31 95.73 251.00 102.00
C 256.78 103.64 255.51 96.42 260.00 95.00
C 262.88 97.38 263.25 103.26 268.00 102.00
C 262.73 95.36 261.49 89.96 267.00 83.00
C 263.22 82.23 261.97 86.70 259.00 88.00 Z"/>
</g>
<g fill="#DFE4E4" fill-opacity="1.00" stroke="None">
<path d="
M 210.00 94.00 
C 182.35 90.05 163.35 114.96 144.23 131.23 C 125.11 147.50 105.92 159.11 88.25 178.25 C 70.59 197.40 85.31 238.77 113.00 241.00 C 140.69 243.23 159.35 220.17 179.25 204.25 C 199.15 188.33 216.32 175.28 234.23 156.23 C 252.14 137.18 236.19 97.74 210.00 94.00
M 208.00 102.00 
C 230.63 105.67 242.07 136.20 226.25 153.25 C 210.42 170.30 182.76 168.48 172.08 145.92 C 161.39 123.36 182.57 97.87 208.00 102.00
M 129.00 169.00 
C 151.42 172.20 161.85 204.18 146.25 220.25 C 130.64 236.31 100.60 235.80 91.23 211.77 C 81.86 187.74 103.68 165.38 129.00 169.00 Z"/>
</g>
<g fill="#FCFCFC" fill-opacity="0.11" stroke="None">
<path d="
M 25.00 131.00 
C 25.00 130.96 26.00 131.00 26.00 131.00
C 26.00 128.67 26.00 126.33 26.00 124.00
C 26.00 116.17 25.11 104.21 25.00 99.00
C 24.02 109.46 25.00 120.49 25.00 131.00 Z"/>
</g>
<g fill="#FFFFFF" fill-opacity="0.08" stroke="None">
<path d="
M 374.00 129.00 
C 374.00 129.50 374.00 130.00 374.00 130.00
C 374.25 130.25 375.00 130.00 375.00 130.00
C 375.00 119.82 375.95 109.13 375.00 99.00
C 374.97 108.02 374.00 119.16 374.00 129.00 Z"/>
</g>
<g fill="#7171FA" fill-opacity="1.00" stroke="None">
<path d="
M 208.00 102.00 
C 182.57 97.87 161.39 123.36 172.08 145.92 C 182.76 168.48 210.42 170.30 226.25 153.25 C 242.07 136.20 230.63 105.67 208.00 102.00 Z"/>
</g>
<g fill="#F4F4F4" fill-opacity="0.78" stroke="None">
<path d="
M 26.00 131.00 
C 26.00 133.77 26.80 136.96 27.00 139.00
C 27.00 133.93 26.42 128.39 26.00 124.00
C 26.00 126.33 26.00 128.67 26.00 131.00 Z"/>
</g>
<g fill="#F4F4F4" fill-opacity="0.77" stroke="None">
<path d="
M 373.00 155.00 
C 373.74 147.34 374.00 138.35 374.00 130.00
C 374.00 130.00 374.00 129.50 374.00 129.00
C 373.23 136.91 373.00 146.32 373.00 155.00 Z"/>
</g>
<g fill="#F3F3F3" fill-opacity="0.48" stroke="None">
<path d="
M 373.00 155.00 
C 373.00 163.31 373.04 171.70 373.00 180.00 C 372.96 188.30 373.10 196.73 373.00 205.00 C 372.90 213.27 373.22 221.80 373.00 230.00 C 372.78 238.20 373.48 246.96 373.00 255.00 C 372.52 263.04 374.07 272.32 373.00 280.00 C 371.93 287.68 374.54 297.81 375.00 301.00
C 377.65 272.75 373.99 243.35 375.00 215.00 C 376.01 186.65 375.00 158.34 375.00 130.00
C 375.00 130.00 374.25 130.25 374.00 130.00
C 374.00 138.35 373.74 147.34 373.00 155.00 Z"/>
</g>
<g fill="#F4F3F3" fill-opacity="0.49" stroke="None">
<path d="
M 26.00 302.00 
C 31.09 249.38 27.00 192.63 27.00 139.00
C 26.80 136.96 26.00 133.77 26.00 131.00
C 26.00 131.00 25.00 130.96 25.00 131.00
C 25.00 159.45 24.54 188.62 25.00 217.00 C 25.46 245.38 23.34 274.47 26.00 302.00 Z"/>
</g>
<g fill="#E4E4E4" fill-opacity="1.00" stroke="None">
<path d="
M 333.00 165.00 
C 331.32 161.56 329.28 145.64 324.08 146.08 C 318.89 146.53 318.43 161.87 316.00 165.00
C 319.41 165.88 319.36 162.16 320.00 160.00
C 327.08 157.29 328.14 164.02 333.00 165.00
M 325.00 150.00 
C 325.26 152.44 326.76 154.52 327.00 157.00
C 321.09 159.31 320.80 151.84 325.00 150.00 Z"/>
</g>
<g fill="#A5A5A5" fill-opacity="1.00" stroke="None">
<path d="
M 325.00 150.00 
C 320.80 151.84 321.09 159.31 327.00 157.00
C 326.76 154.52 325.26 152.44 325.00 150.00 Z"/>
</g>
<g fill="#E0E4E3" fill-opacity="1.00" stroke="None">
<path d="
M 283.00 158.00 
C 255.46 153.07 235.42 178.13 216.08 194.08 C 196.74 210.03 179.79 222.58 161.30 241.30 C 142.82 260.03 155.96 300.63 183.78 304.22 C 211.60 307.82 230.79 286.69 250.30 269.30 C 269.81 251.92 285.50 240.25 304.70 221.70 C 323.89 203.14 309.60 162.77 283.00 158.00
M 281.00 166.00 
C 303.37 169.63 314.37 201.45 298.75 217.75 C 283.13 234.05 252.86 232.24 244.03 208.97 C 235.20 185.71 255.22 161.81 281.00 166.00
M 198.00 232.00 
C 221.28 235.33 234.66 263.73 219.75 282.75 C 204.84 301.78 175.61 298.98 164.25 277.75 C 152.88 256.53 173.62 228.52 198.00 232.00 Z"/>
</g>
<g fill="#CC6065" fill-opacity="1.00" stroke="None">
<path d="
M 281.00 166.00 
C 255.22 161.81 235.20 185.71 244.03 208.97 C 252.86 232.24 283.13 234.05 298.75 217.75 C 314.37 201.45 303.37 169.63 281.00 166.00 Z"/>
</g>
<g fill="#60B46B" fill-opacity="1.00" stroke="None">
<path d="
M 129.00 169.00 
C 103.68 165.38 81.86 187.74 91.23 211.77 C 100.60 235.80 130.64 236.31 146.25 220.25 C 161.85 204.18 151.42 172.20 129.00 169.00 Z"/>
</g>
<g fill="#E4E4E4" fill-opacity="1.00" stroke="None">
<path d="
M 69.00 239.00 
C 67.35 236.32 65.60 231.71 62.00 232.00
C 62.78 235.47 64.82 238.07 67.07 240.93 C 69.32 243.79 65.60 251.61 71.00 251.00
C 68.69 243.18 75.32 238.38 77.00 232.00
C 72.25 231.14 72.41 237.44 69.00 239.00 Z"/>
</g>
<g fill="#FCE65D" fill-opacity="1.00" stroke="None">
<path d="
M 198.00 232.00 
C 173.62 228.52 152.88 256.53 164.25 277.75 C 175.61 298.98 204.84 301.78 219.75 282.75 C 234.66 263.73 221.28 235.33 198.00 232.00 Z"/>
</g>
<g fill="#E3E3E3" fill-opacity="1.00" stroke="None">
<path d="
M 134.00 313.00 
C 136.42 312.31 148.30 315.09 148.00 310.00 C 147.70 304.92 147.70 302.05 147.75 297.25 C 147.80 292.45 136.01 296.23 134.00 295.00
C 134.00 301.00 134.00 307.00 134.00 313.00
M 137.00 302.00 
C 135.10 298.18 141.76 295.82 144.22 298.78 C 146.68 301.74 139.27 302.92 137.00 302.00
M 137.00 311.00 
C 134.68 306.59 140.46 301.95 144.22 305.78 C 147.99 309.61 140.24 312.73 137.00 311.00 Z"/>
</g>
<g fill="#9D9D9D" fill-opacity="1.00" stroke="None">
<path d="
M 137.00 302.00 
C 139.27 302.92 146.68 301.74 144.22 298.78 C 141.76 295.82 135.10 298.18 137.00 302.00 Z"/>
</g>
<g fill="#A1A1A1" fill-opacity="1.00" stroke="None">
<path d="
M 137.00 311.00 
C 140.24 312.73 147.99 309.61 144.22 305.78 C 140.46 301.95 134.68 306.59 137.00 311.00 Z"/>
</g>
<g fill="#F1F1F1" fill-opacity="0.39" stroke="None">
<path d="
M 100.00 375.00 
C 133.37 377.27 168.65 374.76 202.00 375.00 C 235.35 375.24 269.59 377.14 302.00 374.00
C 290.98 372.97 279.43 373.08 268.00 373.00 C 256.57 372.92 246.28 373.57 235.00 374.00 C 223.72 374.43 211.34 373.80 200.00 374.00 C 188.66 374.20 177.28 373.91 166.00 374.00 C 154.72 374.09 142.82 374.35 132.00 373.00 C 121.18 371.65 108.43 373.78 100.00 375.00 Z"/>
</g>
</svg>